# xmcd CD database file
# Copyright (C) 1993-1996 Ti Kan
#
# Track frame offsets:
#	183
#	11955
#	25993
#	35300
#	53633
#	63308
#	79820
#	91455
#	102145
#	111263
#	120445
#	132833
#	148823
#	161138
#	173288
#	187785
#	198705
#	214295
#	226423
#	239768
#	250865
#	268320
#
# Disc length: 3719 seconds
#
# Revision: 2
# Processed by: cddbd v1.4PL0 Copyright (c) Steve Scherf et al.
# Submitted via: Gronk 1.4
#
DISCID=390e8516
DTITLE=Jimmy Reed - Vee-Jay Years - Disc 4/6
DYEAR=1900
DGENRE=blues
TTITLE0=Down The Road
TTITLE1=Want To Be With You Baby
TTITLE2=Jimmy's Rock
TTITLE3=Tell The World I Do
TTITLE4=You're My Baby
TTITLE5=Ain't Gonna Cry No More
TTITLE6=Close Together
TTITLE7=You Know You're Looking Good
TTITLE8=Laughing At The Blues
TTITLE9=I'm A Love You
TTITLE10=Kind OF Lonesome
TTITLE11=Found Joy
TTITLE12=Tell Me You Love Me
TTITLE13=Bright Lights, Big City
TTITLE14=Baby, What's Wrong
TTITLE15=Aw Shucks, Hush Your Mouth
TTITLE16=I'm Mr. Luck
TTITLE17=Blue Carnegie
TTITLE18=Take It Slow
TTITLE19=Good Lover
TTITLE20=Down In Mississippi
TTITLE21=Too Much
EXTD=
EXTT0=
EXTT1=
EXTT2=
EXTT3=
EXTT4=
EXTT5=
EXTT6=
EXTT7=
EXTT8=
EXTT9=
EXTT10=
EXTT11=
EXTT12=
EXTT13=
EXTT14=
EXTT15=
EXTT16=
EXTT17=
EXTT18=
EXTT19=
EXTT20=
EXTT21=
PLAYORDER=
